<svg xmlns="http://www.w3.org/2000/svg" fill="#fff" viewBox="148.4 50.37 403.21 459.27">   <path d="M400.8 75.281c-37.305 15.082-76.395 34.922-119.65 55.359-2.184.992-4.367 2.777-5.953 4.762-14.484 18.059-21.23 42.465-26.391 68.059-4.762 23.812-7.34 48.02-9.922 69.25l-86.707 109.14c-5.36 6.547-4.563 17.066 1.586 22.62l78.379 71.634h-83.738v33.535h341.69v-33.535h-144.25l117.67-134.33c5.555-6.348 5.16-17.066-.793-23.215l-29.566-29.566c4.562-4.168 8.73-8.532 12.699-13.098 14.684-16.668 24.207-37.504 26.39-63.496l70.442-34.922c5.36-2.977 8.73-8.73 8.73-14.883l.2-95.246c0-8.332-7.344-15.871-15.48-16.668-45.836-2.38-95.641 9.129-135.32 24.605zm-82.742 151.8 31.352 31.551c-9.723 10.914-19.844 21.828-27.383 31.746-12.699 15.477-16.668 36.707-6.348 51.988 23.812 19.645 50.598 6.547 67.863-10.516 8.13-7.145 16.86-14.488 24.203-20.637l20.04 20.238-126.59 144.65h-18.853l-94.25-85.918c43.453-54.566 86.91-108.34 129.97-163.11z"></path> </svg>